<svg width="635" height="52" viewBox="0 0 635 52" fill="none" xmlns="http://www.w3.org/2000/svg">
<path d="M4.62 17.37L4.466 13.982L12.54 5.6H15.752L9.042 12.728L7.458 14.466L4.62 17.37ZM2.068 21V5.6H4.928V21H2.068ZM12.804 21L6.908 13.982L8.8 11.892L16.148 21H12.804ZM24.2773 9.12C25.216 9.12 26.052 9.30333 26.7853 9.67C27.5333 10.0367 28.12 10.6013 28.5453 11.364C28.9707 12.112 29.1833 13.08 29.1833 14.268V21H26.4333V14.62C26.4333 13.5787 26.184 12.8013 25.6853 12.288C25.2013 11.7747 24.5193 11.518 23.6393 11.518C22.994 11.518 22.422 11.65 21.9233 11.914C21.4247 12.178 21.036 12.574 20.7573 13.102C20.4933 13.6153 20.3613 14.268 20.3613 15.06V21H17.6113V4.676H20.3613V12.42L19.7673 11.452C20.178 10.704 20.772 10.132 21.5493 9.736C22.3413 9.32533 23.2507 9.12 24.2773 9.12ZM39.6899 21V18.624L39.5359 18.118V13.96C39.5359 13.1533 39.2939 12.53 38.8099 12.09C38.3259 11.6353 37.5926 11.408 36.6099 11.408C35.9499 11.408 35.2972 11.5107 34.6519 11.716C34.0212 11.9213 33.4859 12.2073 33.0459 12.574L31.9679 10.572C32.5986 10.088 33.3466 9.72867 34.2119 9.494C35.0919 9.24467 36.0012 9.12 36.9399 9.12C38.6412 9.12 39.9539 9.53067 40.8779 10.352C41.8166 11.1587 42.2859 12.4127 42.2859 14.114V21H39.6899ZM35.9939 21.154C35.1139 21.154 34.3439 21.0073 33.6839 20.714C33.0239 20.406 32.5106 19.988 32.1439 19.46C31.7919 18.9173 31.6159 18.3087 31.6159 17.634C31.6159 16.974 31.7699 16.38 32.0779 15.852C32.4006 15.324 32.9212 14.906 33.6399 14.598C34.3586 14.29 35.3119 14.136 36.4999 14.136H39.9099V15.962H36.6979C35.7592 15.962 35.1286 16.116 34.8059 16.424C34.4832 16.7173 34.3219 17.084 34.3219 17.524C34.3219 18.0227 34.5199 18.4187 34.9159 18.712C35.3119 19.0053 35.8619 19.152 36.5659 19.152C37.2406 19.152 37.8419 18.998 38.3699 18.69C38.9126 18.382 39.3012 17.9273 39.5359 17.326L39.9979 18.976C39.7339 19.6653 39.2572 20.2007 38.5679 20.582C37.8932 20.9633 37.0352 21.154 35.9939 21.154ZM35.3339 7.646L38.3039 4.632H41.5379L37.7099 7.646H35.3339ZM51.0067 21.154C49.7747 21.154 48.6747 20.8973 47.7067 20.384C46.7533 19.856 46.0053 19.1373 45.4627 18.228C44.92 17.3187 44.6487 16.2847 44.6487 15.126C44.6487 13.9527 44.92 12.9187 45.4627 12.024C46.0053 11.1147 46.7533 10.4033 47.7067 9.89C48.6747 9.37667 49.7747 9.12 51.0067 9.12C52.1507 9.12 53.1553 9.35467 54.0207 9.824C54.9007 10.2787 55.568 10.9533 56.0227 11.848L53.9107 13.08C53.5587 12.5227 53.126 12.112 52.6127 11.848C52.114 11.584 51.5713 11.452 50.9847 11.452C50.31 11.452 49.7013 11.5987 49.1587 11.892C48.616 12.1853 48.1907 12.6107 47.8827 13.168C47.5747 13.7107 47.4207 14.3633 47.4207 15.126C47.4207 15.8887 47.5747 16.5487 47.8827 17.106C48.1907 17.6487 48.616 18.0667 49.1587 18.36C49.7013 18.6533 50.31 18.8 50.9847 18.8C51.5713 18.8 52.114 18.668 52.6127 18.404C53.126 18.14 53.5587 17.7293 53.9107 17.172L56.0227 18.404C55.568 19.284 54.9007 19.966 54.0207 20.45C53.1553 20.9193 52.1507 21.154 51.0067 21.154ZM64.7384 9.12C65.6771 9.12 66.5131 9.30333 67.2464 9.67C67.9944 10.0367 68.5811 10.6013 69.0064 11.364C69.4318 12.112 69.6444 13.08 69.6444 14.268V21H66.8944V14.62C66.8944 13.5787 66.6451 12.8013 66.1464 12.288C65.6624 11.7747 64.9804 11.518 64.1004 11.518C63.4551 11.518 62.8831 11.65 62.3844 11.914C61.8858 12.178 61.4971 12.574 61.2184 13.102C60.9544 13.6153 60.8224 14.268 60.8224 15.06V21H58.0724V4.676H60.8224V12.42L60.2284 11.452C60.6391 10.704 61.2331 10.132 62.0104 9.736C62.8024 9.32533 63.7118 9.12 64.7384 9.12ZM82.4031 21.154C81.4204 21.154 80.4744 21.0293 79.5651 20.78C78.6704 20.516 77.9591 20.2007 77.4311 19.834L78.4871 17.744C79.0151 18.0813 79.6457 18.36 80.3791 18.58C81.1124 18.8 81.8457 18.91 82.5791 18.91C83.4444 18.91 84.0677 18.7927 84.4491 18.558C84.8451 18.3233 85.0431 18.008 85.0431 17.612C85.0431 17.2893 84.9111 17.0473 84.6471 16.886C84.3831 16.71 84.0384 16.578 83.6131 16.49C83.1877 16.402 82.7111 16.3213 82.1831 16.248C81.6697 16.1747 81.1491 16.0793 80.6211 15.962C80.1077 15.83 79.6384 15.6467 79.2131 15.412C78.7877 15.1627 78.4431 14.8327 78.1791 14.422C77.9151 14.0113 77.7831 13.4687 77.7831 12.794C77.7831 12.046 77.9957 11.4007 78.4211 10.858C78.8464 10.3007 79.4404 9.87533 80.2031 9.582C80.9804 9.274 81.8971 9.12 82.9531 9.12C83.7451 9.12 84.5444 9.208 85.3511 9.384C86.1577 9.56 86.8251 9.80933 87.3531 10.132L86.2971 12.222C85.7397 11.8847 85.1751 11.6573 84.6031 11.54C84.0457 11.408 83.4884 11.342 82.9311 11.342C82.0951 11.342 81.4717 11.4667 81.0611 11.716C80.6651 11.9653 80.4671 12.2807 80.4671 12.662C80.4671 13.014 80.5991 13.278 80.8631 13.454C81.1271 13.63 81.4717 13.7693 81.8971 13.872C82.3224 13.9747 82.7917 14.0627 83.3051 14.136C83.8331 14.1947 84.3537 14.29 84.8671 14.422C85.3804 14.554 85.8497 14.7373 86.2751 14.972C86.7151 15.192 87.0671 15.5073 87.3311 15.918C87.5951 16.3287 87.7271 16.864 87.7271 17.524C87.7271 18.2573 87.5071 18.8953 87.0671 19.438C86.6417 19.9807 86.0331 20.406 85.2411 20.714C84.4491 21.0073 83.5031 21.154 82.4031 21.154ZM97.1133 21V18.624L96.9593 18.118V13.96C96.9593 13.1533 96.7173 12.53 96.2333 12.09C95.7493 11.6353 95.016 11.408 94.0333 11.408C93.3733 11.408 92.7207 11.5107 92.0753 11.716C91.4447 11.9213 90.9093 12.2073 90.4693 12.574L89.3913 10.572C90.022 10.088 90.77 9.72867 91.6353 9.494C92.5153 9.24467 93.4247 9.12 94.3633 9.12C96.0647 9.12 97.3773 9.53067 98.3013 10.352C99.24 11.1587 99.7093 12.4127 99.7093 14.114V21H97.1133ZM93.4173 21.154C92.5373 21.154 91.7673 21.0073 91.1073 20.714C90.4473 20.406 89.934 19.988 89.5673 19.46C89.2153 18.9173 89.0393 18.3087 89.0393 17.634C89.0393 16.974 89.1933 16.38 89.5013 15.852C89.824 15.324 90.3447 14.906 91.0633 14.598C91.782 14.29 92.7353 14.136 93.9233 14.136H97.3333V15.962H94.1213C93.1827 15.962 92.552 16.116 92.2293 16.424C91.9067 16.7173 91.7453 17.084 91.7453 17.524C91.7453 18.0227 91.9433 18.4187 92.3393 18.712C92.7353 19.0053 93.2853 19.152 93.9893 19.152C94.664 19.152 95.2653 18.998 95.7933 18.69C96.336 18.382 96.7247 17.9273 96.9593 17.326L97.4213 18.976C97.1573 19.6653 96.6807 20.2007 95.9913 20.582C95.3167 20.9633 94.4587 21.154 93.4173 21.154ZM94.4733 25.466C94.1067 25.466 93.7913 25.3487 93.5273 25.114C93.278 24.8793 93.1533 24.564 93.1533 24.168C93.1533 23.772 93.278 23.4493 93.5273 23.2C93.7913 22.9507 94.1067 22.826 94.4733 22.826C94.84 22.826 95.148 22.9507 95.3973 23.2C95.6613 23.4493 95.7933 23.772 95.7933 24.168C95.7933 24.564 95.6613 24.8793 95.3973 25.114C95.148 25.3487 94.84 25.466 94.4733 25.466ZM109.685 9.12C110.623 9.12 111.459 9.30333 112.193 9.67C112.941 10.0367 113.527 10.6013 113.953 11.364C114.378 12.112 114.591 13.08 114.591 14.268V21H111.841V14.62C111.841 13.5787 111.591 12.8013 111.093 12.288C110.609 11.7747 109.927 11.518 109.047 11.518C108.401 11.518 107.829 11.65 107.331 11.914C106.832 12.178 106.443 12.574 106.165 13.102C105.901 13.6153 105.769 14.268 105.769 15.06V21H103.019V9.252H105.637V12.42L105.175 11.452C105.585 10.704 106.179 10.132 106.957 9.736C107.749 9.32533 108.658 9.12 109.685 9.12Z" fill="black"/>
<path d="M147.622 22.6923L140.89 7.29226H143.992L149.998 21.2183H148.216L154.288 7.29226H157.148L150.438 22.6923H147.622ZM162.93 22.8463C161.625 22.8463 160.481 22.5896 159.498 22.0763C158.53 21.5483 157.775 20.8296 157.232 19.9203C156.704 19.0109 156.44 17.9769 156.44 16.8183C156.44 15.6449 156.697 14.6109 157.21 13.7163C157.738 12.8069 158.457 12.0956 159.366 11.5823C160.29 11.0689 161.339 10.8123 162.512 10.8123C163.656 10.8123 164.676 11.0616 165.57 11.5603C166.465 12.0589 167.169 12.7629 167.682 13.6723C168.196 14.5816 168.452 15.6523 168.452 16.8843C168.452 17.0016 168.445 17.1336 168.43 17.2803C168.43 17.4269 168.423 17.5663 168.408 17.6983H158.618V15.8723H166.956L165.878 16.4443C165.893 15.7696 165.754 15.1756 165.46 14.6623C165.167 14.1489 164.764 13.7456 164.25 13.4523C163.752 13.1589 163.172 13.0123 162.512 13.0123C161.838 13.0123 161.244 13.1589 160.73 13.4523C160.232 13.7456 159.836 14.1563 159.542 14.6843C159.264 15.1976 159.124 15.8063 159.124 16.5103V16.9503C159.124 17.6543 159.286 18.2776 159.608 18.8203C159.931 19.3629 160.386 19.7809 160.972 20.0743C161.559 20.3676 162.234 20.5143 162.996 20.5143C163.656 20.5143 164.25 20.4116 164.778 20.2063C165.306 20.0009 165.776 19.6783 166.186 19.2383L167.66 20.9323C167.132 21.5483 166.465 22.0249 165.658 22.3623C164.866 22.6849 163.957 22.8463 162.93 22.8463ZM160.598 9.33826L163.568 6.32426H166.802L162.974 9.33826H160.598ZM191.562 10.8123C192.501 10.8123 193.329 10.9956 194.048 11.3623C194.781 11.7289 195.353 12.2936 195.764 13.0563C196.175 13.8043 196.38 14.7723 196.38 15.9603V22.6923H193.63V16.3123C193.63 15.2709 193.403 14.4936 192.948 13.9803C192.493 13.4669 191.841 13.2103 190.99 13.2103C190.389 13.2103 189.853 13.3423 189.384 13.6063C188.929 13.8703 188.57 14.2589 188.306 14.7723C188.057 15.2856 187.932 15.9383 187.932 16.7303V22.6923H185.182V16.3123C185.182 15.2709 184.955 14.4936 184.5 13.9803C184.045 13.4669 183.393 13.2103 182.542 13.2103C181.941 13.2103 181.405 13.3423 180.936 13.6063C180.481 13.8703 180.122 14.2589 179.858 14.7723C179.609 15.2856 179.484 15.9383 179.484 16.7303V22.6923H176.734V10.9443H179.352V14.0683L178.89 13.1443C179.286 12.3816 179.858 11.8023 180.606 11.4063C181.369 11.0103 182.234 10.8123 183.202 10.8123C184.302 10.8123 185.255 11.0836 186.062 11.6263C186.883 12.1689 187.426 12.9903 187.69 14.0903L186.612 13.7163C186.993 12.8363 187.624 12.1323 188.504 11.6043C189.384 11.0763 190.403 10.8123 191.562 10.8123ZM206.912 22.6923V20.3163L206.758 19.8103V15.6523C206.758 14.8456 206.516 14.2223 206.032 13.7823C205.548 13.3276 204.815 13.1003 203.832 13.1003C203.172 13.1003 202.519 13.2029 201.874 13.4083C201.243 13.6136 200.708 13.8996 200.268 14.2663L199.19 12.2643C199.821 11.7803 200.569 11.4209 201.434 11.1863C202.314 10.9369 203.223 10.8123 204.162 10.8123C205.863 10.8123 207.176 11.2229 208.1 12.0443C209.039 12.8509 209.508 14.1049 209.508 15.8063V22.6923H206.912ZM203.216 22.8463C202.336 22.8463 201.566 22.6996 200.906 22.4063C200.246 22.0983 199.733 21.6803 199.366 21.1523C199.014 20.6096 198.838 20.0009 198.838 19.3263C198.838 18.6663 198.992 18.0723 199.3 17.5443C199.623 17.0163 200.143 16.5983 200.862 16.2903C201.581 15.9823 202.534 15.8283 203.722 15.8283H207.132V17.6543H203.92C202.981 17.6543 202.351 17.8083 202.028 18.1163C201.705 18.4096 201.544 18.7763 201.544 19.2163C201.544 19.7149 201.742 20.1109 202.138 20.4043C202.534 20.6976 203.084 20.8443 203.788 20.8443C204.463 20.8443 205.064 20.6903 205.592 20.3823C206.135 20.0743 206.523 19.6196 206.758 19.0183L207.22 20.6683C206.956 21.3576 206.479 21.8929 205.79 22.2743C205.115 22.6556 204.257 22.8463 203.216 22.8463ZM202.556 9.33826L205.526 6.32426H208.76L204.932 9.33826H202.556ZM213.57 27.1143C212.998 27.1143 212.426 27.0189 211.854 26.8283C211.282 26.6376 210.806 26.3736 210.424 26.0363L211.524 24.0123C211.803 24.2616 212.118 24.4596 212.47 24.6063C212.822 24.7529 213.182 24.8263 213.548 24.8263C214.047 24.8263 214.45 24.7016 214.758 24.4523C215.066 24.2029 215.352 23.7849 215.616 23.1983L216.298 21.6583L216.518 21.3283L220.962 10.9443H223.602L218.102 23.6383C217.736 24.5183 217.325 25.2149 216.87 25.7283C216.43 26.2416 215.932 26.6009 215.374 26.8063C214.832 27.0116 214.23 27.1143 213.57 27.1143ZM215.99 23.1103L210.688 10.9443H213.548L217.86 21.0863L215.99 23.1103ZM237.473 22.8463C236.476 22.8463 235.589 22.6263 234.811 22.1863C234.034 21.7463 233.418 21.0863 232.963 20.2063C232.523 19.3116 232.303 18.1823 232.303 16.8183C232.303 15.4396 232.531 14.3103 232.985 13.4303C233.455 12.5503 234.078 11.8976 234.855 11.4723C235.647 11.0323 236.52 10.8123 237.473 10.8123C238.632 10.8123 239.651 11.0616 240.531 11.5603C241.426 12.0589 242.13 12.7556 242.643 13.6503C243.171 14.5449 243.435 15.6009 243.435 16.8183C243.435 18.0356 243.171 19.0916 242.643 19.9863C242.13 20.8809 241.426 21.5849 240.531 22.0983C239.651 22.5969 238.632 22.8463 237.473 22.8463ZM230.961 22.6923V6.36826H233.711V13.6723L233.491 16.7963L233.579 19.9203V22.6923H230.961ZM237.165 20.4923C237.825 20.4923 238.412 20.3456 238.925 20.0523C239.453 19.7589 239.871 19.3336 240.179 18.7763C240.487 18.2189 240.641 17.5663 240.641 16.8183C240.641 16.0556 240.487 15.4029 240.179 14.8603C239.871 14.3029 239.453 13.8776 238.925 13.5843C238.412 13.2909 237.825 13.1443 237.165 13.1443C236.505 13.1443 235.911 13.2909 235.383 13.5843C234.855 13.8776 234.437 14.3029 234.129 14.8603C233.821 15.4029 233.667 16.0556 233.667 16.8183C233.667 17.5663 233.821 18.2189 234.129 18.7763C234.437 19.3336 234.855 19.7589 235.383 20.0523C235.911 20.3456 236.505 20.4923 237.165 20.4923ZM252.911 22.6923V20.3163L252.757 19.8103V15.6523C252.757 14.8456 252.515 14.2223 252.031 13.7823C251.547 13.3276 250.814 13.1003 249.831 13.1003C249.171 13.1003 248.518 13.2029 247.873 13.4083C247.242 13.6136 246.707 13.8996 246.267 14.2663L245.189 12.2643C245.82 11.7803 246.568 11.4209 247.433 11.1863C248.313 10.9369 249.222 10.8123 250.161 10.8123C251.862 10.8123 253.175 11.2229 254.099 12.0443C255.038 12.8509 255.507 14.1049 255.507 15.8063V22.6923H252.911ZM249.215 22.8463C248.335 22.8463 247.565 22.6996 246.905 22.4063C246.245 22.0983 245.732 21.6803 245.365 21.1523C245.013 20.6096 244.837 20.0009 244.837 19.3263C244.837 18.6663 244.991 18.0723 245.299 17.5443C245.622 17.0163 246.142 16.5983 246.861 16.2903C247.58 15.9823 248.533 15.8283 249.721 15.8283H253.131V17.6543H249.919C248.98 17.6543 248.35 17.8083 248.027 18.1163C247.704 18.4096 247.543 18.7763 247.543 19.2163C247.543 19.7149 247.741 20.1109 248.137 20.4043C248.533 20.6976 249.083 20.8443 249.787 20.8443C250.462 20.8443 251.063 20.6903 251.591 20.3823C252.134 20.0743 252.522 19.6196 252.757 19.0183L253.219 20.6683C252.955 21.3576 252.478 21.8929 251.789 22.2743C251.114 22.6556 250.256 22.8463 249.215 22.8463ZM259.569 27.1143C258.997 27.1143 258.425 27.0189 257.853 26.8283C257.281 26.6376 256.805 26.3736 256.423 26.0363L257.523 24.0123C257.802 24.2616 258.117 24.4596 258.469 24.6063C258.821 24.7529 259.181 24.8263 259.547 24.8263C260.046 24.8263 260.449 24.7016 260.757 24.4523C261.065 24.2029 261.351 23.7849 261.615 23.1983L262.297 21.6583L262.517 21.3283L266.961 10.9443H269.601L264.101 23.6383C263.735 24.5183 263.324 25.2149 262.869 25.7283C262.429 26.2416 261.931 26.6009 261.373 26.8063C260.831 27.0116 260.229 27.1143 259.569 27.1143ZM261.989 23.1103L256.687 10.9443H259.547L263.859 21.0863L261.989 23.1103Z" fill="black"/>
<path d="M303.068 24.6923V9.29226H305.422L315.08 21.1503H313.914V9.29226H316.752V24.6923H314.398L304.74 12.8343H305.906V24.6923H303.068ZM327.061 12.8123C327.999 12.8123 328.835 12.9956 329.569 13.3623C330.317 13.7289 330.903 14.2936 331.329 15.0563C331.754 15.8043 331.967 16.7723 331.967 17.9603V24.6923H329.217V18.3123C329.217 17.2709 328.967 16.4936 328.469 15.9803C327.985 15.4669 327.303 15.2103 326.423 15.2103C325.777 15.2103 325.205 15.3423 324.707 15.6063C324.208 15.8703 323.819 16.2663 323.541 16.7943C323.277 17.3076 323.145 17.9603 323.145 18.7523V24.6923H320.395V8.36826H323.145V16.1123L322.551 15.1443C322.961 14.3963 323.555 13.8243 324.333 13.4283C325.125 13.0176 326.034 12.8123 327.061 12.8123ZM342.473 24.6923V22.3163L342.319 21.8103V17.6523C342.319 16.8456 342.077 16.2223 341.593 15.7823C341.109 15.3276 340.376 15.1003 339.393 15.1003C338.733 15.1003 338.08 15.2029 337.435 15.4083C336.804 15.6136 336.269 15.8996 335.829 16.2663L334.751 14.2643C335.382 13.7803 336.13 13.4209 336.995 13.1863C337.875 12.9369 338.784 12.8123 339.723 12.8123C341.424 12.8123 342.737 13.2229 343.661 14.0443C344.6 14.8509 345.069 16.1049 345.069 17.8063V24.6923H342.473ZM338.777 24.8463C337.897 24.8463 337.127 24.6996 336.467 24.4063C335.807 24.0983 335.294 23.6803 334.927 23.1523C334.575 22.6096 334.399 22.0009 334.399 21.3263C334.399 20.6663 334.553 20.0723 334.861 19.5443C335.184 19.0163 335.704 18.5983 336.423 18.2903C337.142 17.9823 338.095 17.8283 339.283 17.8283H342.693V19.6543H339.481C338.542 19.6543 337.912 19.8083 337.589 20.1163C337.266 20.4096 337.105 20.7763 337.105 21.2163C337.105 21.7149 337.303 22.1109 337.699 22.4043C338.095 22.6976 338.645 22.8443 339.349 22.8443C340.024 22.8443 340.625 22.6903 341.153 22.3823C341.696 22.0743 342.084 21.6196 342.319 21.0183L342.781 22.6683C342.517 23.3576 342.04 23.8929 341.351 24.2743C340.676 24.6556 339.818 24.8463 338.777 24.8463ZM339.437 11.3383L335.609 8.32426H338.843L341.813 11.3383H339.437ZM360.904 12.8123C361.843 12.8123 362.679 12.9956 363.412 13.3623C364.16 13.7289 364.747 14.2936 365.172 15.0563C365.598 15.8043 365.81 16.7723 365.81 17.9603V24.6923H363.06V18.3123C363.06 17.2709 362.811 16.4936 362.312 15.9803C361.828 15.4669 361.146 15.2103 360.266 15.2103C359.621 15.2103 359.049 15.3423 358.55 15.6063C358.052 15.8703 357.663 16.2663 357.384 16.7943C357.12 17.3076 356.988 17.9603 356.988 18.7523V24.6923H354.238V8.36826H356.988V16.1123L356.394 15.1443C356.805 14.3963 357.399 13.8243 358.176 13.4283C358.968 13.0176 359.878 12.8123 360.904 12.8123ZM376.317 24.6923V22.3163L376.163 21.8103V17.6523C376.163 16.8456 375.921 16.2223 375.437 15.7823C374.953 15.3276 374.22 15.1003 373.237 15.1003C372.577 15.1003 371.924 15.2029 371.279 15.4083C370.648 15.6136 370.113 15.8996 369.673 16.2663L368.595 14.2643C369.226 13.7803 369.974 13.4209 370.839 13.1863C371.719 12.9369 372.628 12.8123 373.567 12.8123C375.268 12.8123 376.581 13.2229 377.505 14.0443C378.444 14.8509 378.913 16.1049 378.913 17.8063V24.6923H376.317ZM372.621 24.8463C371.741 24.8463 370.971 24.6996 370.311 24.4063C369.651 24.0983 369.138 23.6803 368.771 23.1523C368.419 22.6096 368.243 22.0009 368.243 21.3263C368.243 20.6663 368.397 20.0723 368.705 19.5443C369.028 19.0163 369.548 18.5983 370.267 18.2903C370.986 17.9823 371.939 17.8283 373.127 17.8283H376.537V19.6543H373.325C372.386 19.6543 371.756 19.8083 371.433 20.1163C371.11 20.4096 370.949 20.7763 370.949 21.2163C370.949 21.7149 371.147 22.1109 371.543 22.4043C371.939 22.6976 372.489 22.8443 373.193 22.8443C373.868 22.8443 374.469 22.6903 374.997 22.3823C375.54 22.0743 375.928 21.6196 376.163 21.0183L376.625 22.6683C376.361 23.3576 375.884 23.8929 375.195 24.2743C374.52 24.6556 373.662 24.8463 372.621 24.8463ZM373.281 11.3383L369.453 8.32426H372.687L375.657 11.3383H373.281ZM388.888 12.8123C389.827 12.8123 390.663 12.9956 391.396 13.3623C392.144 13.7289 392.731 14.2936 393.156 15.0563C393.582 15.8043 393.794 16.7723 393.794 17.9603V24.6923H391.044V18.3123C391.044 17.2709 390.795 16.4936 390.296 15.9803C389.812 15.4669 389.13 15.2103 388.25 15.2103C387.605 15.2103 387.033 15.3423 386.534 15.6063C386.036 15.8703 385.647 16.2663 385.368 16.7943C385.104 17.3076 384.972 17.9603 384.972 18.7523V24.6923H382.222V12.9443H384.84V16.1123L384.378 15.1443C384.789 14.3963 385.383 13.8243 386.16 13.4283C386.952 13.0176 387.862 12.8123 388.888 12.8123ZM402.408 29.1143C401.323 29.1143 400.26 28.9676 399.218 28.6743C398.192 28.3956 397.348 27.9849 396.688 27.4423L397.92 25.3743C398.434 25.7996 399.079 26.1369 399.856 26.3863C400.648 26.6503 401.448 26.7823 402.254 26.7823C403.545 26.7823 404.491 26.4816 405.092 25.8803C405.694 25.2936 405.994 24.4063 405.994 23.2183V21.1283L406.214 18.4663L406.126 15.8043V12.9443H408.744V22.9103C408.744 25.0369 408.202 26.5989 407.116 27.5963C406.031 28.6083 404.462 29.1143 402.408 29.1143ZM402.056 24.1643C400.942 24.1643 399.93 23.9296 399.02 23.4603C398.126 22.9763 397.414 22.3089 396.886 21.4583C396.373 20.6076 396.116 19.6103 396.116 18.4663C396.116 17.3369 396.373 16.3469 396.886 15.4963C397.414 14.6456 398.126 13.9856 399.02 13.5163C399.93 13.0469 400.942 12.8123 402.056 12.8123C403.054 12.8123 403.948 13.0103 404.74 13.4063C405.532 13.8023 406.163 14.4183 406.632 15.2543C407.116 16.0903 407.358 17.1609 407.358 18.4663C407.358 19.7716 407.116 20.8496 406.632 21.7003C406.163 22.5363 405.532 23.1596 404.74 23.5703C403.948 23.9663 403.054 24.1643 402.056 24.1643ZM402.474 21.8323C403.164 21.8323 403.78 21.6929 404.322 21.4143C404.865 21.1209 405.283 20.7249 405.576 20.2263C405.884 19.7129 406.038 19.1263 406.038 18.4663C406.038 17.8063 405.884 17.2269 405.576 16.7283C405.283 16.2149 404.865 15.8263 404.322 15.5623C403.78 15.2836 403.164 15.1443 402.474 15.1443C401.785 15.1443 401.162 15.2836 400.604 15.5623C400.062 15.8263 399.636 16.2149 399.328 16.7283C399.035 17.2269 398.888 17.8063 398.888 18.4663C398.888 19.1263 399.035 19.7129 399.328 20.2263C399.636 20.7249 400.062 21.1209 400.604 21.4143C401.162 21.6929 401.785 21.8323 402.474 21.8323Z" fill="#02C39A"/>
<path d="M447.192 26.6923V13.7123H442.088V11.2923H455.156V13.7123H450.052V26.6923H447.192ZM460.895 26.8463C459.693 26.8463 458.622 26.5896 457.683 26.0763C456.745 25.5483 456.004 24.8296 455.461 23.9203C454.919 23.0109 454.647 21.9769 454.647 20.8183C454.647 19.6449 454.919 18.6109 455.461 17.7163C456.004 16.8069 456.745 16.0956 457.683 15.5823C458.622 15.0689 459.693 14.8123 460.895 14.8123C462.113 14.8123 463.191 15.0689 464.129 15.5823C465.083 16.0956 465.823 16.7996 466.351 17.6943C466.894 18.5889 467.165 19.6303 467.165 20.8183C467.165 21.9769 466.894 23.0109 466.351 23.9203C465.823 24.8296 465.083 25.5483 464.129 26.0763C463.191 26.5896 462.113 26.8463 460.895 26.8463ZM460.895 24.4923C461.57 24.4923 462.171 24.3456 462.699 24.0523C463.227 23.7589 463.638 23.3336 463.931 22.7763C464.239 22.2189 464.393 21.5663 464.393 20.8183C464.393 20.0556 464.239 19.4029 463.931 18.8603C463.638 18.3029 463.227 17.8776 462.699 17.5843C462.171 17.2909 461.577 17.1443 460.917 17.1443C460.243 17.1443 459.641 17.2909 459.113 17.5843C458.6 17.8776 458.189 18.3029 457.881 18.8603C457.573 19.4029 457.419 20.0556 457.419 20.8183C457.419 21.5663 457.573 22.2189 457.881 22.7763C458.189 23.3336 458.6 23.7589 459.113 24.0523C459.641 24.3456 460.235 24.4923 460.895 24.4923ZM474.547 26.8463C473.55 26.8463 472.67 26.6629 471.907 26.2963C471.144 25.9149 470.55 25.3429 470.125 24.5803C469.7 23.8029 469.487 22.8276 469.487 21.6543V14.9443H472.237V21.2803C472.237 22.3363 472.472 23.1283 472.941 23.6563C473.425 24.1696 474.107 24.4263 474.987 24.4263C475.632 24.4263 476.19 24.2943 476.659 24.0303C477.143 23.7663 477.517 23.3703 477.781 22.8423C478.06 22.3143 478.199 21.6616 478.199 20.8843V14.9443H480.949V26.6923H478.331V23.5243L478.793 24.4923C478.397 25.2549 477.818 25.8416 477.055 26.2523C476.292 26.6483 475.456 26.8463 474.547 26.8463ZM484.33 26.6923V14.9443H486.948V18.1783L486.64 17.2323C486.992 16.4403 487.542 15.8389 488.29 15.4283C489.052 15.0176 489.998 14.8123 491.128 14.8123V17.4303C491.01 17.4009 490.9 17.3863 490.798 17.3863C490.695 17.3716 490.592 17.3643 490.49 17.3643C489.448 17.3643 488.62 17.6723 488.004 18.2883C487.388 18.8896 487.08 19.7916 487.08 20.9943V26.6923H484.33ZM503.916 26.9123C502.845 26.9123 501.885 26.7363 501.034 26.3843C500.183 26.0323 499.516 25.5483 499.032 24.9323C498.548 24.3163 498.306 23.6049 498.306 22.7983C498.306 22.0649 498.467 21.4049 498.79 20.8183C499.113 20.2316 499.626 19.6743 500.33 19.1463C501.034 18.6036 501.936 18.0609 503.036 17.5183C503.901 17.0929 504.576 16.7189 505.06 16.3963C505.559 16.0736 505.903 15.7656 506.094 15.4723C506.299 15.1789 506.402 14.8709 506.402 14.5483C506.402 14.1083 506.248 13.7563 505.94 13.4923C505.632 13.2136 505.192 13.0743 504.62 13.0743C504.004 13.0743 503.52 13.2283 503.168 13.5363C502.831 13.8296 502.662 14.2183 502.662 14.7023C502.662 14.9516 502.706 15.1936 502.794 15.4283C502.897 15.6629 503.073 15.9269 503.322 16.2203C503.571 16.5136 503.931 16.8876 504.4 17.3423L512.54 25.1523L511.022 26.9343L502.222 18.4863C501.723 18.0023 501.32 17.5549 501.012 17.1443C500.704 16.7336 500.484 16.3376 500.352 15.9563C500.22 15.5603 500.154 15.1569 500.154 14.7463C500.154 14.0276 500.337 13.3969 500.704 12.8543C501.071 12.2969 501.591 11.8716 502.266 11.5783C502.941 11.2703 503.725 11.1163 504.62 11.1163C505.456 11.1163 506.175 11.2556 506.776 11.5343C507.392 11.7983 507.869 12.1869 508.206 12.7003C508.558 13.1989 508.734 13.8003 508.734 14.5043C508.734 15.1203 508.58 15.6923 508.272 16.2203C507.964 16.7336 507.48 17.2249 506.82 17.6943C506.175 18.1636 505.309 18.6549 504.224 19.1683C503.417 19.5643 502.779 19.9383 502.31 20.2903C501.841 20.6423 501.503 20.9943 501.298 21.3463C501.093 21.6983 500.99 22.0869 500.99 22.5123C500.99 22.9376 501.115 23.3116 501.364 23.6343C501.628 23.9569 501.995 24.2136 502.464 24.4043C502.933 24.5803 503.483 24.6683 504.114 24.6683C505.053 24.6683 505.903 24.4629 506.666 24.0523C507.443 23.6269 508.096 22.9963 508.624 22.1603C509.152 21.3243 509.533 20.2903 509.768 19.0583L511.99 19.7843C511.682 21.2656 511.147 22.5416 510.384 23.6123C509.636 24.6683 508.712 25.4823 507.612 26.0543C506.512 26.6263 505.28 26.9123 503.916 26.9123ZM525.419 26.9123C524.217 26.9123 523.065 26.7436 521.965 26.4063C520.865 26.0543 519.993 25.6069 519.347 25.0643L520.337 22.8423C520.953 23.3263 521.716 23.7296 522.625 24.0523C523.535 24.3749 524.466 24.5363 525.419 24.5363C526.226 24.5363 526.879 24.4483 527.377 24.2723C527.876 24.0963 528.243 23.8616 528.477 23.5683C528.712 23.2603 528.829 22.9156 528.829 22.5343C528.829 22.0649 528.661 21.6909 528.323 21.4123C527.986 21.1189 527.546 20.8916 527.003 20.7303C526.475 20.5543 525.881 20.3929 525.221 20.2463C524.576 20.0996 523.923 19.9309 523.263 19.7403C522.618 19.5349 522.024 19.2783 521.481 18.9703C520.953 18.6476 520.521 18.2223 520.183 17.6943C519.846 17.1663 519.677 16.4916 519.677 15.6703C519.677 14.8343 519.897 14.0716 520.337 13.3823C520.792 12.6783 521.474 12.1209 522.383 11.7103C523.307 11.2849 524.473 11.0723 525.881 11.0723C526.805 11.0723 527.722 11.1896 528.631 11.4243C529.541 11.6589 530.333 11.9963 531.007 12.4363L530.105 14.6583C529.416 14.2476 528.705 13.9469 527.971 13.7563C527.238 13.5509 526.534 13.4483 525.859 13.4483C525.067 13.4483 524.422 13.5436 523.923 13.7343C523.439 13.9249 523.08 14.1743 522.845 14.4823C522.625 14.7903 522.515 15.1423 522.515 15.5383C522.515 16.0076 522.677 16.3889 522.999 16.6823C523.337 16.9609 523.769 17.1809 524.297 17.3423C524.84 17.5036 525.441 17.6649 526.101 17.8263C526.761 17.9729 527.414 18.1416 528.059 18.3323C528.719 18.5229 529.313 18.7723 529.841 19.0803C530.384 19.3883 530.817 19.8063 531.139 20.3343C531.477 20.8623 531.645 21.5296 531.645 22.3363C531.645 23.1576 531.418 23.9203 530.963 24.6243C530.523 25.3136 529.841 25.8709 528.917 26.2963C527.993 26.7069 526.827 26.9123 525.419 26.9123ZM538.969 26.8463C537.972 26.8463 537.092 26.6629 536.329 26.2963C535.566 25.9149 534.972 25.3429 534.547 24.5803C534.122 23.8029 533.909 22.8276 533.909 21.6543V14.9443H536.659V21.2803C536.659 22.3363 536.894 23.1283 537.363 23.6563C537.847 24.1696 538.529 24.4263 539.409 24.4263C540.054 24.4263 540.612 24.2943 541.081 24.0303C541.565 23.7663 541.939 23.3703 542.203 22.8423C542.482 22.3143 542.621 21.6616 542.621 20.8843V14.9443H545.371V26.6923H542.753V23.5243L543.215 24.4923C542.819 25.2549 542.24 25.8416 541.477 26.2523C540.714 26.6483 539.878 26.8463 538.969 26.8463ZM543.589 16.9023V14.9443H544.051C544.506 14.9443 544.843 14.8123 545.063 14.5483C545.298 14.2843 545.415 13.9469 545.415 13.5363C545.415 13.2723 545.371 13.0229 545.283 12.7883C545.21 12.5536 545.107 12.3483 544.975 12.1723L546.669 11.5563C546.874 11.8203 547.036 12.1283 547.153 12.4803C547.27 12.8323 547.329 13.2136 547.329 13.6243C547.329 14.6363 547.036 15.4356 546.449 16.0223C545.862 16.6089 545.056 16.9023 544.029 16.9023H543.589ZM539.629 31.1583C539.262 31.1583 538.947 31.0409 538.683 30.8063C538.434 30.5716 538.309 30.2563 538.309 29.8603C538.309 29.4643 538.434 29.1416 538.683 28.8923C538.947 28.6429 539.262 28.5183 539.629 28.5183C539.996 28.5183 540.304 28.6429 540.553 28.8923C540.817 29.1416 540.949 29.4643 540.949 29.8603C540.949 30.2563 540.817 30.5716 540.553 30.8063C540.304 31.0409 539.996 31.1583 539.629 31.1583ZM557.135 24.0743L557.201 20.6203L563.339 14.9443H566.639L561.425 20.1803L559.973 21.3903L557.135 24.0743ZM554.891 26.6923V10.3683H557.641V26.6923H554.891ZM563.757 26.6923L559.467 21.3903L561.205 19.1903L567.101 26.6923H563.757ZM568.657 26.6923V14.9443H571.407V26.6923H568.657ZM570.043 13.0083C569.53 13.0083 569.105 12.8469 568.767 12.5243C568.445 12.2016 568.283 11.8129 568.283 11.3583C568.283 10.8889 568.445 10.5003 568.767 10.1923C569.105 9.86959 569.53 9.70826 570.043 9.70826C570.557 9.70826 570.975 9.86226 571.297 10.1703C571.635 10.4636 571.803 10.8376 571.803 11.2923C571.803 11.7763 571.642 12.1869 571.319 12.5243C570.997 12.8469 570.571 13.0083 570.043 13.0083ZM580.319 26.8463C579.013 26.8463 577.869 26.5896 576.887 26.0763C575.919 25.5483 575.163 24.8296 574.621 23.9203C574.093 23.0109 573.829 21.9769 573.829 20.8183C573.829 19.6449 574.085 18.6109 574.599 17.7163C575.127 16.8069 575.845 16.0956 576.755 15.5823C577.679 15.0689 578.727 14.8123 579.901 14.8123C581.045 14.8123 582.064 15.0616 582.959 15.5603C583.853 16.0589 584.557 16.7629 585.071 17.6723C585.584 18.5816 585.841 19.6523 585.841 20.8843C585.841 21.0016 585.833 21.1336 585.819 21.2803C585.819 21.4269 585.811 21.5663 585.797 21.6983H576.007V19.8723H584.345L583.267 20.4443C583.281 19.7696 583.142 19.1756 582.849 18.6623C582.555 18.1489 582.152 17.7456 581.639 17.4523C581.14 17.1589 580.561 17.0123 579.901 17.0123C579.226 17.0123 578.632 17.1589 578.119 17.4523C577.62 17.7456 577.224 18.1563 576.931 18.6843C576.652 19.1976 576.513 19.8063 576.513 20.5103V20.9503C576.513 21.6543 576.674 22.2776 576.997 22.8203C577.319 23.3629 577.774 23.7809 578.361 24.0743C578.947 24.3676 579.622 24.5143 580.385 24.5143C581.045 24.5143 581.639 24.4116 582.167 24.2063C582.695 24.0009 583.164 23.6783 583.575 23.2383L585.049 24.9323C584.521 25.5483 583.853 26.0249 583.047 26.3623C582.255 26.6849 581.345 26.8463 580.319 26.8463ZM579.835 31.1583C579.468 31.1583 579.153 31.0409 578.889 30.8063C578.639 30.5716 578.515 30.2563 578.515 29.8603C578.515 29.4643 578.639 29.1416 578.889 28.8923C579.153 28.6429 579.468 28.5183 579.835 28.5183C580.201 28.5183 580.509 28.6429 580.759 28.8923C581.023 29.1416 581.155 29.4643 581.155 29.8603C581.155 30.2563 581.023 30.5716 580.759 30.8063C580.509 31.0409 580.201 31.1583 579.835 31.1583ZM575.633 13.3383L578.581 10.3243H581.089L584.037 13.3383H581.771L578.779 10.8083H580.891L577.899 13.3383H575.633ZM594.928 14.8123C595.867 14.8123 596.703 14.9956 597.436 15.3623C598.184 15.7289 598.771 16.2936 599.196 17.0563C599.622 17.8043 599.834 18.7723 599.834 19.9603V26.6923H597.084V20.3123C597.084 19.2709 596.835 18.4936 596.336 17.9803C595.852 17.4669 595.17 17.2103 594.29 17.2103C593.645 17.2103 593.073 17.3423 592.574 17.6063C592.076 17.8703 591.687 18.2663 591.408 18.7943C591.144 19.3076 591.012 19.9603 591.012 20.7523V26.6923H588.262V14.9443H590.88V18.1123L590.418 17.1443C590.829 16.3963 591.423 15.8243 592.2 15.4283C592.992 15.0176 593.902 14.8123 594.928 14.8123Z" fill="black"/>
</svg>
