<svg width="165" height="29" viewBox="0 0 165 29" fill="none" xmlns="http://www.w3.org/2000/svg">
<path d="M22.352 4.528C23.7173 4.528 24.9227 4.80533 25.968 5.36C27.0347 5.89333 27.8667 6.72533 28.464 7.856C29.0827 8.96533 29.392 10.3947 29.392 12.144V22H24.4V12.912C24.4 11.5253 24.112 10.5013 23.536 9.84C22.96 9.17867 22.1493 8.848 21.104 8.848C20.3787 8.848 19.728 9.01867 19.152 9.36C18.576 9.68 18.128 10.1707 17.808 10.832C17.488 11.4933 17.328 12.336 17.328 13.36V22H12.336V12.912C12.336 11.5253 12.048 10.5013 11.472 9.84C10.9173 9.17867 10.1173 8.848 9.072 8.848C8.34667 8.848 7.696 9.01867 7.12 9.36C6.544 9.68 6.096 10.1707 5.776 10.832C5.456 11.4933 5.296 12.336 5.296 13.36V22H0.304V4.784H5.072V9.488L4.176 8.112C4.77333 6.93867 5.616 6.05333 6.704 5.456C7.81333 4.83733 9.072 4.528 10.48 4.528C12.0587 4.528 13.4347 4.93333 14.608 5.744C15.8027 6.53333 16.592 7.74933 16.976 9.392L15.216 8.912C15.792 7.568 16.7093 6.50133 17.968 5.712C19.248 4.92267 20.7093 4.528 22.352 4.528ZM35.41 28.464C34.514 28.464 33.6287 28.3253 32.754 28.048C31.8793 27.7707 31.1647 27.3867 30.61 26.896L32.434 23.344C32.818 23.6853 33.2553 23.952 33.746 24.144C34.258 24.336 34.7593 24.432 35.25 24.432C35.954 24.432 36.5087 24.2613 36.914 23.92C37.3407 23.6 37.7247 23.056 38.066 22.288L38.962 20.176L39.346 19.632L45.522 4.784H50.322L42.546 23.056C41.9913 24.4427 41.3513 25.5307 40.626 26.32C39.922 27.1093 39.1327 27.664 38.258 27.984C37.4047 28.304 36.4553 28.464 35.41 28.464ZM38.354 22.672L30.674 4.784H35.826L41.778 19.184L38.354 22.672ZM59.5478 22.256C57.5211 22.256 55.9424 21.744 54.8118 20.72C53.6811 19.6747 53.1158 18.128 53.1158 16.08V0.976H58.1078V16.016C58.1078 16.7413 58.2998 17.3067 58.6838 17.712C59.0678 18.096 59.5904 18.288 60.2518 18.288C61.0411 18.288 61.7131 18.0747 62.2678 17.648L63.6118 21.168C63.0998 21.5307 62.4811 21.808 61.7558 22C61.0518 22.1707 60.3158 22.256 59.5478 22.256ZM50.4598 9.008V5.168H62.3958V9.008H50.4598ZM73.7548 22.256C71.9201 22.256 70.2881 21.872 68.8588 21.104C67.4508 20.336 66.3308 19.2907 65.4988 17.968C64.6881 16.624 64.2828 15.0987 64.2828 13.392C64.2828 11.664 64.6881 10.1387 65.4988 8.816C66.3308 7.472 67.4508 6.42667 68.8588 5.68C70.2881 4.912 71.9201 4.528 73.7548 4.528C75.5681 4.528 77.1894 4.912 78.6188 5.68C80.0481 6.42667 81.1681 7.46133 81.9788 8.784C82.7894 10.1067 83.1948 11.6427 83.1948 13.392C83.1948 15.0987 82.7894 16.624 81.9788 17.968C81.1681 19.2907 80.0481 20.336 78.6188 21.104C77.1894 21.872 75.5681 22.256 73.7548 22.256ZM73.7548 18.16C74.5868 18.16 75.3334 17.968 75.9948 17.584C76.6561 17.2 77.1788 16.656 77.5628 15.952C77.9468 15.2267 78.1388 14.3733 78.1388 13.392C78.1388 12.3893 77.9468 11.536 77.5628 10.832C77.1788 10.128 76.6561 9.584 75.9948 9.2C75.3334 8.816 74.5868 8.624 73.7548 8.624C72.9228 8.624 72.1761 8.816 71.5148 9.2C70.8534 9.584 70.3201 10.128 69.9148 10.832C69.5308 11.536 69.3388 12.3893 69.3388 13.392C69.3388 14.3733 69.5308 15.2267 69.9148 15.952C70.3201 16.656 70.8534 17.2 71.5148 17.584C72.1761 17.968 72.9228 18.16 73.7548 18.16ZM93.4755 22.256C92.0462 22.256 90.7662 21.9787 89.6355 21.424C88.5262 20.8693 87.6622 20.0267 87.0435 18.896C86.4248 17.744 86.1155 16.2827 86.1155 14.512V4.784H91.1075V13.776C91.1075 15.2053 91.4062 16.2613 92.0035 16.944C92.6222 17.6053 93.4862 17.936 94.5955 17.936C95.3635 17.936 96.0462 17.776 96.6435 17.456C97.2408 17.1147 97.7102 16.6027 98.0515 15.92C98.3928 15.216 98.5635 14.3413 98.5635 13.296V4.784H103.556V22H98.8195V17.264L99.6835 18.64C99.1075 19.8347 98.2542 20.7413 97.1235 21.36C96.0142 21.9573 94.7982 22.256 93.4755 22.256ZM107.86 22V4.784H112.628V9.648L111.956 8.24C112.468 7.024 113.29 6.10667 114.42 5.488C115.551 4.848 116.927 4.528 118.548 4.528V9.136C118.335 9.11467 118.143 9.104 117.972 9.104C117.802 9.08267 117.62 9.072 117.428 9.072C116.063 9.072 114.954 9.46667 114.1 10.256C113.268 11.024 112.852 12.2293 112.852 13.872V22H107.86ZM122.897 22.256C122.044 22.256 121.308 21.968 120.689 21.392C120.092 20.7947 119.793 20.0373 119.793 19.12C119.793 18.2027 120.092 17.4667 120.689 16.912C121.308 16.336 122.044 16.048 122.897 16.048C123.772 16.048 124.508 16.336 125.105 16.912C125.702 17.4667 126.001 18.2027 126.001 19.12C126.001 20.0373 125.702 20.7947 125.105 21.392C124.508 21.968 123.772 22.256 122.897 22.256ZM132.705 22L125.473 4.784H130.625L136.641 19.6H134.081L140.321 4.784H145.121L137.857 22H132.705ZM157.302 4.528C158.667 4.528 159.883 4.80533 160.95 5.36C162.038 5.89333 162.891 6.72533 163.51 7.856C164.128 8.96533 164.438 10.3947 164.438 12.144V22H159.446V12.912C159.446 11.5253 159.136 10.5013 158.518 9.84C157.92 9.17867 157.067 8.848 155.958 8.848C155.168 8.848 154.454 9.01867 153.814 9.36C153.195 9.68 152.704 10.1813 152.342 10.864C152 11.5467 151.83 12.4213 151.83 13.488V22H146.838V4.784H151.606V9.552L150.71 8.112C151.328 6.96 152.214 6.07467 153.366 5.456C154.518 4.83733 155.83 4.528 157.302 4.528Z" fill="#02C39A"/>
</svg>
